<svg width="41" height="44" viewBox="0 0 41 44" fill="none" xmlns="http://www.w3.org/2000/svg">
<path d="M13.4525 25.03L12.3811 26.0699C12.2298 26.2169 12.1445 26.4187 12.1445 26.6295V27.0733C12.1445 27.504 12.4938 27.8532 12.9246 27.8532H19.3221C19.7535 27.8532 20.1025 27.504 20.1025 27.0733V26.4988C20.1025 26.0682 19.7535 25.7187 19.3221 25.7187H15.7873L15.8848 25.6291C18.195 23.4034 19.8301 21.6515 19.8301 19.3704C19.8301 17.5466 18.6449 15.7063 15.9958 15.7063C14.8394 15.7063 13.7069 16.0775 12.8067 16.7509C12.5143 16.9703 12.4128 17.3633 12.5633 17.6967L12.7601 18.1318C12.8557 18.3434 13.04 18.5015 13.2642 18.563C13.4871 18.6246 13.7276 18.583 13.9177 18.4502C14.4966 18.046 15.0925 17.8408 15.6895 17.8408C16.8513 17.8408 17.4401 18.4185 17.4401 19.5498C17.4246 21.0829 16.1529 22.4591 13.4525 25.03Z" fill="#E09C19"/>
<path d="M25.1158 15.8975C25.095 15.8956 25.0739 15.8948 25.0531 15.8948H24.8149C24.5598 15.8948 24.3212 16.0194 24.1754 16.228L19.3976 23.0655C19.3061 23.1965 19.2571 23.3526 19.2571 23.5124V24.0605C19.2571 24.4913 19.6061 24.8406 20.0369 24.8406H24.3994V27.0744C24.3994 27.5051 24.7484 27.8544 25.1792 27.8544H25.9241C26.3546 27.8544 26.7043 27.5051 26.7043 27.0744V24.8406H27.4734C27.9042 24.8406 28.2536 24.4913 28.2536 24.0605V23.5539C28.2536 23.1234 27.9042 22.774 27.4734 22.774H26.7043V16.6749C26.7043 16.2443 26.3546 15.8949 25.9241 15.8949H25.1792C25.1579 15.8949 25.1366 15.8957 25.1158 15.8975ZM24.3994 22.774H22.0438C22.6422 21.905 23.6654 20.4138 24.3994 19.3116V22.774Z" fill="#E09C19"/>
<path d="M20.2243 39.6883C11.0434 39.6883 3.57403 32.219 3.57403 23.0381C3.57403 14.3446 10.2718 7.18718 18.7777 6.45134V9.10546C18.7777 9.29401 18.8818 9.46731 19.0481 9.55585C19.1234 9.59607 19.2058 9.61578 19.288 9.61578C19.3875 9.61578 19.487 9.58662 19.5726 9.52899L25.5991 5.47998C25.7403 5.38523 25.8249 5.22637 25.8249 5.05631C25.8249 4.88639 25.7403 4.7274 25.5991 4.63265L19.5726 0.583639C19.4161 0.478499 19.2144 0.467972 19.0479 0.556915C18.8817 0.645589 18.7776 0.818886 18.7776 1.0073V3.06609C8.40898 3.81003 0.199707 12.4829 0.199707 23.038C0.199707 34.0795 9.18288 43.0624 20.2242 43.0624C25.3362 43.0624 30.2029 41.1363 33.9277 37.639L31.6183 35.1791C28.5213 38.087 24.475 39.6883 20.2243 39.6883Z" fill="#E09C19"/>
<path d="M37.3229 12.6026C36.6331 11.4744 35.8264 10.4091 34.926 9.43677L32.4502 11.7292C33.1995 12.5383 33.8703 13.4247 34.4445 14.3631L37.3229 12.6026Z" fill="#E09C19"/>
<path d="M36.7255 20.7768L40.0691 20.3229C39.8907 19.0083 39.5798 17.7082 39.1451 16.4585L35.9583 17.5667C36.3192 18.6045 36.5772 19.6845 36.7255 20.7768Z" fill="#E09C19"/>
<path d="M31.7097 6.63345C30.6239 5.87183 29.4587 5.21684 28.2465 4.68628L26.8938 7.77744C27.9012 8.21837 28.8697 8.76283 29.7723 9.39583L31.7097 6.63345Z" fill="#E09C19"/>
<path d="M33.0947 33.6186L35.7 35.7628C36.5428 34.7388 37.2859 33.628 37.9085 32.4613L34.9318 30.8726C34.414 31.8427 33.796 32.7667 33.0947 33.6186Z" fill="#E09C19"/>
<path d="M36.8348 24.3296C36.7508 25.4305 36.5566 26.5247 36.2581 27.5813L39.505 28.4994C39.8648 27.2272 40.0983 25.9107 40.1995 24.5867L36.8348 24.3296Z" fill="#E09C19"/>
</svg>
