<svg width="105" height="76" viewBox="0 0 105 76" fill="none" xmlns="http://www.w3.org/2000/svg">
<path d="M11.2588 0V50.8595L2.70703 59.5343C1.00488 61.2365 0 63.5744 0 65.9943C0 70.9367 4.08105 75.0177 9.02344 75.0177H95.9766C100.919 75.0177 105 70.9367 105 65.9943C105 63.5949 103.995 61.257 102.313 59.5548L93.7617 50.88V0.0205075H11.2588V0ZM18.7441 7.50588H86.2354V48.7472H18.7441V7.50588ZM52.5 11.2588L46.8809 45.0147H52.5L58.1191 11.2588H52.5ZM37.8164 18.7647L31.377 26.5167L30.0029 28.1368L31.377 29.7569L37.8164 37.5089L41.8975 34.2686L36.791 28.1368L41.8975 22.0049L37.8164 18.7647ZM67.1836 18.7647L63.1025 22.0049L68.209 28.1368L63.1025 34.2686L67.1836 37.5089L73.623 29.7569L74.9971 28.1368L73.623 26.5167L67.1836 18.7647ZM16.6318 56.253H88.3477L97.0225 64.8048C97.3096 65.0919 97.4941 65.5636 97.4941 65.9738C97.4941 66.8761 96.8789 67.4914 95.9766 67.4914H9.02344C8.12109 67.4914 7.50586 66.8761 7.50586 65.9738C7.50586 65.5636 7.69043 65.0919 7.97754 64.8048L16.6318 56.253Z" fill="#AA98CE"/>
</svg>
