<svg width="62" height="63" viewBox="0 0 62 63" fill="none" xmlns="http://www.w3.org/2000/svg">
<path d="M31 28.5C31.2651 28.5003 31.5193 28.6058 31.7067 28.7933C31.8942 28.9807 31.9997 29.2349 32 29.5H34C33.998 28.8816 33.8048 28.2791 33.4467 27.7749C33.0886 27.2708 32.5832 26.8899 32 26.6845V25.5H30V26.6843C29.333 26.9188 28.7706 27.3818 28.4124 27.9914C28.0542 28.6009 27.9235 29.3176 28.0433 30.0144C28.1631 30.7112 28.5258 31.343 29.067 31.7979C29.6082 32.2528 30.293 32.5013 31 32.4995C31.1978 32.4995 31.3912 32.5581 31.5557 32.6679C31.7202 32.7778 31.8485 32.9339 31.9242 33.1166C32 33.2994 32.0199 33.5004 31.9814 33.6945C31.9429 33.8885 31.8477 34.0667 31.7079 34.2067C31.5681 34.3466 31.3899 34.442 31.1959 34.4807C31.002 34.5194 30.8008 34.4997 30.618 34.4241C30.4353 34.3485 30.279 34.2204 30.169 34.056C30.0589 33.8916 30.0002 33.6983 30 33.5005H28C28.002 34.1188 28.1954 34.7214 28.5535 35.2254C28.9116 35.7295 29.417 36.1103 30.0002 36.3157L30 37.3921H32L32.0002 36.3156C32.6672 36.081 33.2296 35.6179 33.5877 35.0082C33.9458 34.3986 34.0766 33.6819 33.9567 32.9851C33.8369 32.2883 33.4742 31.6564 32.933 31.2014C32.3918 30.7465 31.707 30.4978 31 30.4995C30.8684 30.4999 30.7381 30.4744 30.6164 30.4243C30.4948 30.3743 30.3842 30.3007 30.291 30.2078C30.1978 30.1149 30.1239 30.0046 30.0735 29.8831C30.023 29.7616 29.9971 29.6313 29.9971 29.4998C29.9971 29.3682 30.023 29.2379 30.0735 29.1164C30.1239 28.9949 30.1978 28.8846 30.291 28.7917C30.3842 28.6988 30.4948 28.6252 30.6164 28.5752C30.7381 28.5251 30.8684 28.4996 31 28.5Z" fill="#E09C19"/>
<path d="M41.0001 33.6079H38.0001V20.5C38.0001 20.2348 37.8947 19.9804 37.7072 19.7929C37.5196 19.6054 37.2653 19.5 37.0001 19.5H25.0001C24.7348 19.5 24.4805 19.6054 24.293 19.7929C24.1054 19.9804 24.0001 20.2348 24.0001 20.5V33.6079H21.0001C20.8059 33.6079 20.616 33.6644 20.4534 33.7705C20.2908 33.8767 20.1627 34.0278 20.0845 34.2056C20.0064 34.3833 19.9817 34.5799 20.0134 34.7715C20.0452 34.963 20.132 35.1411 20.2632 35.2842L30.2632 46.1763C30.3569 46.2783 30.4708 46.3598 30.5977 46.4155C30.7245 46.4712 30.8615 46.5 31.0001 46.5C31.1386 46.5 31.2756 46.4712 31.4025 46.4155C31.5293 46.3598 31.6432 46.2783 31.7369 46.1763L41.7369 35.2842C41.8682 35.1411 41.9549 34.963 41.9867 34.7715C42.0184 34.5799 41.9937 34.3833 41.9156 34.2056C41.8375 34.0278 41.7093 33.8767 41.5467 33.7705C41.3842 33.6644 41.1942 33.6079 41.0001 33.6079ZM31.0001 44.0215L23.2759 35.6079H25.0001C25.2653 35.6079 25.5196 35.5026 25.7072 35.315C25.8947 35.1275 26.0001 34.8731 26.0001 34.6079V21.5H36.0001V34.6079C36.0001 34.8731 36.1054 35.1275 36.293 35.315C36.4805 35.5026 36.7348 35.6079 37.0001 35.6079H38.7242L31.0001 44.0215Z" fill="#E09C19"/>
<path d="M31 10.5C26.8466 10.5 22.7865 11.7316 19.333 14.0391C15.8796 16.3466 13.188 19.6264 11.5985 23.4636C10.0091 27.3009 9.59323 31.5233 10.4035 35.5969C11.2138 39.6705 13.2139 43.4123 16.1508 46.3492C19.0877 49.2861 22.8295 51.2862 26.9031 52.0965C30.9767 52.9068 35.1991 52.4909 39.0364 50.9015C42.8736 49.312 46.1534 46.6204 48.4609 43.167C50.7684 39.7135 52 35.6534 52 31.5C51.9938 25.9324 49.7793 20.5946 45.8424 16.6577C41.9054 12.7207 36.5676 10.5062 31 10.5ZM31 50.5C27.2422 50.5 23.5687 49.3857 20.4442 47.2979C17.3196 45.2102 14.8844 42.2428 13.4463 38.771C12.0082 35.2992 11.632 31.4789 12.3651 27.7933C13.0982 24.1076 14.9078 20.7222 17.565 18.065C20.2222 15.4078 23.6077 13.5982 27.2933 12.8651C30.9789 12.132 34.7992 12.5082 38.271 13.9463C41.7428 15.3844 44.7102 17.8196 46.7979 20.9442C48.8857 24.0687 50 27.7422 50 31.5C49.9943 36.5374 47.9907 41.3668 44.4287 44.9287C40.8668 48.4907 36.0374 50.4943 31 50.5Z" fill="#E09C19"/>
<path d="M60.4316 24.7246H58.4839C58.0789 24.7121 57.6884 24.5707 57.3692 24.3211C57.05 24.0714 56.8187 23.7265 56.709 23.3364C56.244 21.8768 55.6552 20.4591 54.9492 19.0996C54.7502 18.7458 54.6693 18.3376 54.7185 17.9346C54.7677 17.5317 54.9443 17.1549 55.2227 16.8594L56.6079 15.4736C56.772 15.3096 56.8739 15.0937 56.8963 14.8628C56.9186 14.6319 56.86 14.4004 56.7305 14.208C54.4903 10.8754 51.6242 8.00955 48.2915 5.76953C48.0991 5.64 47.8676 5.58139 47.6367 5.60375C47.4058 5.62611 47.1899 5.72804 47.0259 5.89209L45.6401 7.27734C45.3445 7.55549 44.9678 7.73201 44.5648 7.78119C44.1619 7.83037 43.7538 7.74965 43.3999 7.55078C42.0404 6.84447 40.6229 6.25573 39.1631 5.791C38.7731 5.68125 38.4282 5.44997 38.1786 5.13077C37.929 4.81156 37.7878 4.42108 37.7754 4.01609V2.06836C37.7754 1.83644 37.6948 1.61173 37.5474 1.43269C37.4 1.25365 37.1949 1.13141 36.9673 1.08691C33.0273 0.307619 28.9727 0.307619 25.0327 1.08691C24.8051 1.13141 24.6 1.25365 24.4526 1.43269C24.3052 1.61173 24.2246 1.83644 24.2246 2.06836V4.01611C24.2122 4.4211 24.0709 4.81158 23.8214 5.13077C23.5718 5.44997 23.2269 5.68126 22.8369 5.791C21.3769 6.25581 19.9593 6.84454 18.5996 7.55076C18.2457 7.74966 17.8376 7.8304 17.4347 7.78122C17.0317 7.73204 16.655 7.5555 16.3594 7.27732L14.9741 5.89209C14.8101 5.72804 14.5942 5.62611 14.3633 5.60375C14.1324 5.58139 13.9009 5.64 13.7085 5.76953C10.3758 8.00955 7.50973 10.8754 5.2695 14.208C5.13997 14.4004 5.08136 14.6319 5.10372 14.8628C5.12608 15.0937 5.22801 15.3096 5.39206 15.4736L6.77731 16.8599C7.05567 17.1554 7.23233 17.5321 7.28152 17.9351C7.33071 18.3381 7.24986 18.7463 7.05075 19.1001C6.34457 20.4595 5.75585 21.8768 5.291 23.3364C5.18127 23.7265 4.95001 24.0715 4.63081 24.3211C4.31162 24.5707 3.92112 24.7121 3.51609 24.7246H1.56836C1.33644 24.7246 1.11173 24.8052 0.932689 24.9526C0.753649 25.1 0.631415 25.3051 0.58691 25.5327C-0.195637 29.4724 -0.195637 33.5276 0.58691 37.4673C0.631415 37.6949 0.753649 37.9 0.932689 38.0474C1.11173 38.1948 1.33644 38.2754 1.56836 38.2754H3.51611C3.9211 38.2878 4.31158 38.4291 4.63078 38.6786C4.94997 38.9282 5.18126 39.2731 5.291 39.6631C5.75591 41.1227 6.34463 42.54 7.05076 43.8994C7.24987 44.2534 7.33072 44.6617 7.28153 45.0648C7.23235 45.468 7.05569 45.8449 6.77732 46.1406L5.39209 47.5259C5.22804 47.6899 5.12611 47.9058 5.10375 48.1367C5.08139 48.3676 5.14 48.5991 5.26953 48.7915C7.50955 52.1242 10.3754 54.9903 13.708 57.2305C13.9005 57.3598 14.1319 57.4183 14.3628 57.3959C14.5936 57.3736 14.8095 57.2718 14.9736 57.1079L16.3599 55.7227C16.6554 55.4443 17.0321 55.2676 17.4351 55.2183C17.838 55.169 18.2462 55.2498 18.6001 55.4488C19.9595 56.1554 21.377 56.7443 22.8369 57.209C23.2269 57.3187 23.5718 57.55 23.8214 57.8692C24.071 58.1884 24.2122 58.5789 24.2246 58.9839V60.9317C24.2246 61.1636 24.3052 61.3883 24.4526 61.5673C24.6 61.7464 24.8051 61.8686 25.0327 61.9131C28.9724 62.6957 33.0276 62.6957 36.9673 61.9131C37.1949 61.8686 37.4 61.7464 37.5474 61.5673C37.6948 61.3883 37.7754 61.1636 37.7754 60.9317V58.9839C37.7878 58.5789 37.929 58.1884 38.1786 57.8692C38.4282 57.55 38.7731 57.3187 39.1631 57.209C40.623 56.7443 42.0405 56.1554 43.3999 55.4487C43.7539 55.2498 44.1621 55.1692 44.5652 55.2184C44.9682 55.2677 45.345 55.4444 45.6406 55.7227L47.0264 57.1079C47.1905 57.2717 47.4064 57.3735 47.6372 57.3959C47.8681 57.4182 48.0995 57.3598 48.292 57.2305C51.6247 54.9904 54.4906 52.1243 56.7305 48.7915C56.86 48.599 56.9186 48.3676 56.8962 48.1367C56.8739 47.9058 56.772 47.6899 56.6079 47.5258L55.2227 46.1401C54.9443 45.8445 54.7676 45.4677 54.7184 45.0646C54.6692 44.6615 54.7501 44.2533 54.9492 43.8994C55.6554 42.54 56.2441 41.1227 56.709 39.6631C56.8187 39.2731 57.05 38.9282 57.3692 38.6786C57.6884 38.429 58.0789 38.2878 58.4839 38.2754H60.4317C60.6636 38.2754 60.8883 38.1948 61.0673 38.0474C61.2464 37.9 61.3686 37.6949 61.4131 37.4673C62.1957 33.5276 62.1957 29.4724 61.4131 25.5327C61.3686 25.3051 61.2464 25.1 61.0673 24.9526C60.8883 24.8052 60.6636 24.7246 60.4316 24.7246ZM59.5966 36.2754H58.4839C57.6539 36.2864 56.8492 36.5623 56.187 37.0628C55.5248 37.5633 55.0398 38.2622 54.8027 39.0576C54.3729 40.4083 53.8283 41.7197 53.1748 42.9775C52.7781 43.7082 52.6256 44.5467 52.7396 45.3703C52.8537 46.1938 53.2282 46.9593 53.8086 47.5547L54.603 48.3496C52.7411 50.9589 50.4589 53.241 47.8496 55.103L47.0552 54.3086C46.4597 53.7283 45.6943 53.3538 44.8708 53.2397C44.0473 53.1256 43.2088 53.2779 42.478 53.6743C41.2201 54.3279 39.9085 54.8727 38.5576 55.3027C37.7622 55.5399 37.0633 56.0249 36.5629 56.687C36.0624 57.3492 35.7865 58.1539 35.7754 58.9839V60.0966C32.6143 60.6318 29.3857 60.6318 26.2246 60.0966V58.9839C26.2135 58.1539 25.9376 57.3492 25.4371 56.6871C24.9367 56.0249 24.2378 55.5399 23.4424 55.3027C22.0915 54.8728 20.7799 54.328 19.522 53.6743C18.7913 53.2779 17.9529 53.1256 17.1295 53.2397C16.3061 53.3539 15.5407 53.7284 14.9453 54.3086L14.1504 55.103C11.5414 53.2408 9.25924 50.9587 7.397 48.3496L8.19144 47.5552C8.77173 46.9597 9.14632 46.1942 9.26044 45.3705C9.37456 44.5469 9.22223 43.7084 8.82571 42.9775C8.17188 41.7198 7.62709 40.4084 7.1973 39.0576C6.9602 38.2622 6.4752 37.5633 5.81302 37.0628C5.15084 36.5623 4.3461 36.2864 3.51614 36.2754H2.40332C1.86556 33.1145 1.86556 29.8855 2.40332 26.7246H3.51611C4.34605 26.7135 5.15076 26.4376 5.81292 25.9371C6.47509 25.4367 6.9601 24.7378 7.19727 23.9424C7.62717 22.5917 8.17179 21.2803 8.8252 20.0225C9.22204 19.2918 9.3746 18.4533 9.26056 17.6297C9.14651 16.8061 8.77185 16.0406 8.19141 15.4453L7.397 14.6504C9.25924 12.0413 11.5413 9.75924 14.1504 7.897L14.9448 8.69144C15.5403 9.27164 16.3057 9.64617 17.1292 9.76028C17.9527 9.8744 18.7912 9.72212 19.522 9.32571C20.78 8.67212 22.0915 8.12733 23.4424 7.6973C24.2378 7.46013 24.9367 6.97512 25.4371 6.31295C25.9376 5.65079 26.2135 4.84608 26.2246 4.01614V2.90332C29.3857 2.36816 32.6143 2.36816 35.7754 2.90332V4.01611C35.7865 4.84605 36.0624 5.65076 36.5629 6.31292C37.0633 6.97509 37.7622 7.4601 38.5576 7.69727C39.9083 8.12725 41.2197 8.67188 42.4775 9.3252C43.2083 9.72179 44.0467 9.87421 44.8702 9.76017C45.6938 9.64614 46.4592 9.27163 47.0547 8.69141L47.8496 7.89697C50.4587 9.75921 52.7408 12.0413 54.603 14.6504L53.8086 15.4448C53.2282 16.0402 52.8535 16.8056 52.7394 17.6292C52.6253 18.4528 52.7777 19.2912 53.1743 20.022C53.828 21.2799 54.3728 22.5915 54.8027 23.9424C55.0399 24.7378 55.5249 25.4367 56.187 25.9371C56.8492 26.4376 57.6539 26.7135 58.4839 26.7246H59.5966C60.1344 29.8855 60.1344 33.1145 59.5966 36.2754Z" fill="#E09C19"/>
</svg>
