<svg width="20" height="20" viewBox="0 0 20 20" fill="none" xmlns="http://www.w3.org/2000/svg">
<path d="M16.4062 0C16.1562 0 15.8875 0.1125 15.6875 0.3125L10.4062 5.59375L14.4062 9.59375L19.6875 4.3125C20.0875 3.9125 20.0875 3.20625 19.6875 2.90625L17.0938 0.3125C16.8937 0.1125 16.6562 0 16.4062 0ZM9.59375 7.1875C7.99375 8.7875 6.1 9.1875 3 9.1875C2.4 11.9875 0.8 17.1125 0 19.3125L5.09375 14.1875C5.09375 13.9875 5 13.8875 5 13.6875C5 12.9875 5.6125 12.4062 6.3125 12.4062C7.0125 12.4062 7.59375 12.9875 7.59375 13.6875C7.49375 14.3875 7.0125 15 6.3125 15C6.1125 15 6.0125 15.0063 5.8125 14.9062L0.6875 20C2.8875 19.3 7.9125 17.6 10.8125 17C10.8125 13.9 11.2125 12.0063 12.8125 10.4062L9.59375 7.1875Z" fill="#D5BD86"/>
</svg>
