<svg width="42" height="42" viewBox="0 0 42 42" fill="none" xmlns="http://www.w3.org/2000/svg">
<g clip-path="url(#clip0_2314_2)">
<path d="M8.94313 38.2629L11.53 36.2623L14.4746 37.6835L13.3738 34.6093L15.6368 32.2509L12.3718 32.3531L10.8245 29.4732L9.90765 32.6121L6.6869 33.1915L9.3896 35.0319L8.94313 38.2629ZM20.94 41.269L22.1772 38.2425L25.4354 38.0005L22.944 35.8874L23.7245 32.711L20.9434 34.4321L18.1623 32.711L18.9428 35.8874L16.4446 38.0005L19.7028 38.2425L20.94 41.269ZM11.305 18.3829C12.8183 17.8171 14.7507 17.0946 16.1413 16.2323C17.7363 17.7114 18.7724 19.3951 18.8542 21.44H23.0395C23.1213 19.3951 24.1573 17.7114 25.7524 16.2323C27.1429 17.0946 29.0754 17.8137 30.5886 18.3829C35.0466 20.0495 32.8687 23.093 30.2683 25.656C27.8825 28.0042 24.5868 29.4561 20.9434 29.4561C17.3 29.4561 14.0077 28.0076 11.6186 25.656C9.0556 23.1305 6.81641 20.0597 11.305 18.3829ZM17.6613 14.1533C17.7295 13.5943 16.0799 11.4778 15.78 10.4588C15.1324 9.43632 14.9041 7.80038 15.6096 6.71657C15.8925 6.28714 15.7698 5.51688 15.7698 4.92726C15.7698 -0.972345 26.1068 -0.979161 26.1068 4.92726C26.1068 5.67366 25.9364 6.24283 26.342 6.82904C27.0202 7.8106 26.6692 9.5522 26.0966 10.4656C25.7319 11.5324 24.0006 13.5534 24.1233 14.1601C24.2255 17.1832 17.6375 17.0843 17.6613 14.1533ZM41.88 29.3164L39.8794 26.733L41.3006 23.7883L38.223 24.8925L35.8645 22.6295L35.9668 25.8945L33.0868 27.4419L36.2258 28.3553L36.8052 31.576L38.6422 28.8733L41.88 29.3164ZM32.9369 38.2629L32.4972 35.0217L35.1999 33.1813L31.9826 32.5985L31.0692 29.4595L29.5219 32.3395L26.2534 32.2372L28.5164 34.5957L27.4054 37.6767L30.3501 36.2555L32.9369 38.2629ZM0 29.313L3.2412 28.8733L5.08163 31.576L5.66443 28.3587L8.80339 27.4453L5.92346 25.898L6.0257 22.6329L3.66382 24.8959L0.579395 23.7883L2.00062 26.733L0 29.313Z" fill="#E09C19"/>
</g>
<defs>
<clipPath id="clip0_2314_2">
<rect width="41.88" height="40.769" fill="white" transform="translate(0 0.5)"/>
</clipPath>
</defs>
</svg>
