<svg width="448" height="256" viewBox="0 0 448 256" fill="none" xmlns="http://www.w3.org/2000/svg">
<path d="M224 0C142.1 0 78.3 48.8 0 128C67.4 195.7 124 256 224 256C323.9 256 397.4 179.6 448 129.4C396.2 70.6 322.8 0 224 0ZM224 219.3C174.6 219.3 134.4 178.3 134.4 128C134.4 77.6 174.6 36.7 224 36.7C273.4 36.7 313.6 77.7 313.6 128C313.6 178.4 273.4 219.3 224 219.3Z" fill="#0D6EFD"/>
<path d="M224 96C224 88.1 226.9 80.9 231.6 75.3C229.1 74.9 226.6 74.7 224 74.7C195.2 74.7 171.7 98.6 171.7 128C171.7 157.4 195.2 181.3 224 181.3C252.8 181.3 276.3 157.4 276.3 128C276.3 125.7 276.1 123.4 275.9 121.1C270.4 125.4 263.6 128 256.1 128C238.3 128 224 113.7 224 96Z" fill="#0D6EFD"/>
</svg>
