<svg width="1000" height="85" viewBox="0 0 1000 85" fill="none" xmlns="http://www.w3.org/2000/svg">
<g clip-path="url(#clip0_1_2)">
<path opacity="0.66" d="M734 17.2242C688.5 17.2242 656.8 40.4242 604.9 56.3242C576.3 65.0242 454.6 66.4242 350.9 17.2242C247.2 -31.9758 259.2 51.6242 201.7 17.2242C115.7 -33.7758 0 44.7242 0 44.7242V84.5242H1000V48.0242C1000 48.0242 971.8 66.5242 907.9 66.5242C810.2 66.4242 775.7 17.2242 734 17.2242Z" fill="url(#paint0_linear_1_2)"/>
<path d="M766.1 60.0967C566.1 108.698 500.1 4.73336 371 43.6145C242 83.0027 242 79.9599 184.8 67.1122C128 54.2645 132.3 46.5728 89.9 40.149C28.6 30.6823 0 84.5242 0 84.5242H1000C1000 84.5242 990.1 49.9538 916.4 43.868C842.7 37.7823 829.6 44.7978 766.1 60.0967Z" fill="url(#paint1_linear_1_2)"/>
</g>
<defs>
<linearGradient id="paint0_linear_1_2" x1="1000" y1="42.2621" x2="0" y2="42.2621" gradientUnits="userSpaceOnUse">
<stop stop-color="#03151D"/>
<stop offset="1" stop-color="#0B5A7B"/>
</linearGradient>
<linearGradient id="paint1_linear_1_2" x1="1000" y1="59.616" x2="0" y2="59.616" gradientUnits="userSpaceOnUse">
<stop stop-color="#03151D"/>
<stop offset="1" stop-color="#0B5A7B"/>
</linearGradient>
<clipPath id="clip0_1_2">
<rect width="1000" height="84.5242" fill="white" transform="matrix(1 0 0 -1 0 84.5242)"/>
</clipPath>
</defs>
</svg>
