<svg width="30" height="30" viewBox="0 0 30 30" fill="none" xmlns="http://www.w3.org/2000/svg">
<g clip-path="url(#clip0_2314_51)">
<path d="M29.6422 15.2807C29.6422 14.0516 29.5424 13.1547 29.3266 12.2246H15.2917V17.7721H23.5299C23.3639 19.1507 22.467 21.2269 20.4738 22.6221L20.4459 22.8078L24.8834 26.2455L25.1909 26.2762C28.0144 23.6685 29.6422 19.8317 29.6422 15.2807Z" fill="#4285F4"/>
<path d="M15.292 29.8971C19.3281 29.8971 22.7163 28.5682 25.1912 26.2762L20.4741 22.622C19.2118 23.5023 17.5176 24.1169 15.292 24.1169C11.339 24.1169 7.98392 21.5093 6.78792 17.905L6.61262 17.9199L1.99833 21.491L1.93799 21.6587C4.39616 26.5418 9.44544 29.8971 15.292 29.8971Z" fill="#34A853"/>
<path d="M6.78787 17.9051C6.4723 16.975 6.28967 15.9783 6.28967 14.9486C6.28967 13.9187 6.4723 12.9222 6.77127 11.9921L6.76291 11.794L2.09083 8.16553L1.93797 8.23824C0.92484 10.2646 0.343506 12.5402 0.343506 14.9486C0.343506 17.357 0.92484 19.6324 1.93797 21.6588L6.78787 17.9051Z" fill="#FBBC05"/>
<path d="M15.292 5.78006C18.0989 5.78006 19.9924 6.99254 21.072 8.00579L25.2908 3.88661C22.6998 1.47825 19.328 0 15.292 0C9.44543 0 4.39616 3.35509 1.93799 8.23823L6.77131 11.992C7.98391 8.38777 11.339 5.78006 15.292 5.78006Z" fill="#EB4335"/>
</g>
<defs>
<clipPath id="clip0_2314_51">
<rect width="30" height="30" fill="white"/>
</clipPath>
</defs>
</svg>
