<svg width="31" height="33" viewBox="0 0 31 33" fill="none" xmlns="http://www.w3.org/2000/svg">
<g clip-path="url(#clip0_2314_5)">
<path fill-rule="evenodd" clip-rule="evenodd" d="M18.6241 10.8791L19.3838 11.6388C19.583 11.838 19.583 12.1674 19.3838 12.3666L18.7702 12.9802C18.9402 13.2962 19.0677 13.6362 19.1501 13.9922H19.9443C20.2285 13.9922 20.4596 14.2232 20.4596 14.5075V15.5832C20.4596 15.8674 20.2285 16.0985 19.9443 16.0985H19.0783C18.9721 16.4491 18.8207 16.7785 18.6295 17.0839L19.1899 17.6444C19.3891 17.8436 19.3891 18.173 19.1899 18.3722L18.4302 19.1319C18.231 19.3311 17.9017 19.3311 17.7025 19.1319L17.0915 18.5209C16.7755 18.6909 16.4355 18.8184 16.0769 18.9008V19.695C16.0769 19.9792 15.8458 20.2103 15.5616 20.2103H14.4858C14.2016 20.2103 13.9705 19.9792 13.9705 19.695V18.829C13.6199 18.7228 13.2906 18.5714 12.9851 18.3802L12.43 18.938C12.2308 19.1372 11.9014 19.1372 11.7022 18.938L10.9425 18.1783C10.7433 17.9791 10.7433 17.6497 10.9425 17.4505L11.5534 16.8396C11.3834 16.5235 11.2559 16.1835 11.1736 15.8276H10.3794C10.0979 15.8276 9.86411 15.5965 9.86411 15.3123V14.2365C9.86411 13.9523 10.0952 13.7212 10.3794 13.7212H11.2453C11.3516 13.3706 11.503 13.0413 11.6942 12.7358L11.1338 12.1753C10.9345 11.9761 10.9345 11.6468 11.1338 11.4476L11.8934 10.6879C12.0926 10.4887 12.422 10.4887 12.6212 10.6879L13.2348 11.3015C13.5509 11.1315 13.8909 11.004 14.2468 10.9216V10.1274C14.2468 9.84322 14.4779 9.61214 14.7621 9.61214H15.8378C16.122 9.61214 16.3531 9.84322 16.3531 10.1274V10.9933C16.7037 11.0996 17.0331 11.251 17.3386 11.4422L17.899 10.8818C18.0982 10.6773 18.4249 10.6773 18.6241 10.8791ZM11.7208 27.111C11.418 27.119 11.1524 26.8958 11.1099 26.5904C11.0647 26.2716 11.2798 25.9768 11.5933 25.9157C11.248 23.9581 10.305 22.8797 9.30897 21.7402C8.53337 20.853 7.72855 19.9314 7.09373 18.5741C6.46953 17.238 6.12689 15.8568 6.13751 14.4225C6.15079 12.9881 6.51469 11.5113 7.30622 9.984C7.31154 9.97338 7.31685 9.96541 7.32216 9.95478C8.36072 8.1964 9.81364 7.02237 11.4312 6.36364C12.7885 5.8085 14.2627 5.61991 15.7077 5.75272C17.1473 5.88553 18.5577 6.33708 19.7902 7.06487C21.3573 7.99187 22.6456 9.36777 23.3548 11.1049C23.7373 12.0452 23.9976 13.0944 24.0294 14.2445C24.0613 15.3893 23.8648 16.6244 23.3362 17.9313C22.6296 19.6817 21.6947 20.7681 20.8208 21.7854C20.016 22.723 19.2669 23.5942 18.8499 24.9303C19.0863 24.9861 19.2722 25.18 19.3094 25.4349C19.3546 25.7643 19.1235 26.0698 18.7941 26.1149L18.5923 26.1441C18.5551 26.4337 18.5312 26.7444 18.5206 27.0765L18.587 27.0658C18.9163 27.0207 19.2218 27.2518 19.2669 27.5811C19.3121 27.9105 19.081 28.216 18.7516 28.2611L18.5445 28.2903C18.5471 28.3302 18.5498 28.37 18.5524 28.4099C18.571 28.6436 18.5737 28.8694 18.5604 29.0845L18.5949 29.0792C18.9269 29.0394 19.2271 29.2758 19.2696 29.6051C19.3094 29.9372 19.073 30.2373 18.7437 30.2798L18.2974 30.3356C17.9787 31.1616 17.4103 31.7912 16.7383 32.179C16.2761 32.4472 15.7635 32.6013 15.2482 32.6332C14.7249 32.665 14.1963 32.5668 13.7129 32.333C13.1604 32.0621 12.6664 31.6132 12.3078 30.9677C12.1351 30.8801 12.0076 30.7101 11.9811 30.5029C11.9705 30.4206 11.9784 30.3409 11.9997 30.2665C11.8961 29.9584 11.819 29.6211 11.7686 29.2492L11.75 29.2519C11.4206 29.297 11.1152 29.0659 11.07 28.7366C11.0249 28.4072 11.2559 28.1017 11.5853 28.0566L11.7287 28.0353C11.7367 27.7113 11.7341 27.4032 11.7208 27.111ZM0.578157 15.6337C0.267386 15.6416 0.0097377 15.3999 -0.000886957 15.0892C-0.0115116 14.7784 0.232856 14.5207 0.543627 14.5101L2.85449 14.4304C3.16526 14.4198 3.42291 14.6642 3.43354 14.9749C3.44416 15.2857 3.19979 15.5434 2.88902 15.554L0.578157 15.6337ZM29.4002 13.3467C29.7083 13.3148 29.9846 13.5406 30.0164 13.8487C30.0483 14.1568 29.8225 14.4331 29.5144 14.465L27.2142 14.7067C26.9061 14.7385 26.6298 14.5128 26.598 14.2047C26.5661 13.8965 26.7919 13.6203 27.1 13.5884L29.4002 13.3467ZM25.2114 3.92528C25.3841 3.66763 25.732 3.59857 25.9897 3.77122C26.2473 3.94387 26.3164 4.29183 26.1437 4.54948L24.8582 6.47254C24.6855 6.73019 24.3376 6.79925 24.0799 6.6266C23.8223 6.45395 23.7532 6.10599 23.9259 5.84834L25.2114 3.92528ZM15.3066 0.546628C15.3146 0.235856 15.5722 -0.00851147 15.8803 -0.000542956C16.1911 0.00742556 16.4355 0.265074 16.4275 0.57319L16.3691 2.88406C16.3611 3.19483 16.1034 3.4392 15.7953 3.43123C15.4846 3.42326 15.2402 3.16561 15.2482 2.8575L15.3066 0.546628ZM3.68587 4.12449C3.45744 3.912 3.44682 3.55607 3.65665 3.33029C3.86915 3.10186 4.22507 3.09124 4.45085 3.30108L6.14282 4.87884C6.37125 5.09134 6.38188 5.44726 6.17204 5.67304C5.95955 5.90147 5.60362 5.91209 5.37785 5.70225L3.68587 4.12449ZM12.7168 25.7537L17.6281 25.0551C18.0504 23.2755 18.9694 22.205 19.9655 21.0496C20.7836 20.0987 21.6548 19.084 22.2923 17.5063C22.7598 16.3508 22.9324 15.2671 22.9059 14.2684C22.8793 13.2723 22.6509 12.3533 22.3109 11.5219C21.7 10.0265 20.5817 8.83654 19.2165 8.02906C18.1248 7.38361 16.879 6.98253 15.6067 6.86831C14.3397 6.75144 13.0462 6.91878 11.8536 7.40486C10.4564 7.97594 9.20007 8.99059 8.29697 10.5179C7.59575 11.8779 7.27169 13.1794 7.26107 14.4304C7.25044 15.6895 7.5559 16.9086 8.11104 18.0959C8.67681 19.3072 9.43116 20.1678 10.1536 20.9965C11.2798 22.2874 12.345 23.5066 12.7168 25.7537ZM17.4289 26.3035L12.8417 26.9543C12.855 27.2465 12.8603 27.5519 12.855 27.876L17.3837 27.2332C17.389 26.9065 17.4023 26.5957 17.4289 26.3035ZM12.8789 29.0925C12.9107 29.3369 12.9585 29.56 13.0196 29.7672L17.4156 29.2253C17.4448 28.9969 17.4501 28.7552 17.4289 28.4975V28.4922L17.4262 28.447L12.8789 29.0925ZM13.6438 30.9093C13.8138 31.0873 14.0024 31.2254 14.2016 31.321C14.5071 31.4698 14.8444 31.5309 15.1764 31.5123C15.5191 31.491 15.8591 31.3874 16.1698 31.2068C16.462 31.0368 16.725 30.8004 16.9348 30.5029L13.6438 30.9093ZM15.1632 12.7942C16.3292 12.7942 17.2775 13.7398 17.2775 14.9085C17.2775 16.0773 16.3319 17.0229 15.1632 17.0229C13.9944 17.0229 13.0489 16.0773 13.0489 14.9085C13.0489 13.7398 13.9971 12.7942 15.1632 12.7942Z" fill="#E09C19"/>
</g>
<defs>
<clipPath id="clip0_2314_5">
<rect width="30.02" height="32.639" fill="white"/>
</clipPath>
</defs>
</svg>
