<svg width="30" height="30" viewBox="0 0 30 30" fill="none" xmlns="http://www.w3.org/2000/svg">
<path d="M0 1V12.509C0 12.7742 0.105357 13.0286 0.292893 13.2161C0.48043 13.4036 0.734784 13.509 1 13.509H12.509C12.7742 13.509 13.0286 13.4036 13.2161 13.2161C13.4036 13.0286 13.509 12.7742 13.509 12.509V1C13.509 0.734784 13.4036 0.48043 13.2161 0.292893C13.0286 0.105357 12.7742 0 12.509 0H1C0.734784 0 0.48043 0.105357 0.292893 0.292893C0.105357 0.48043 0 0.734784 0 1ZM2 2H11.509V11.509H2V2ZM29 0H17.491C17.2258 0 16.9714 0.105357 16.7839 0.292893C16.5964 0.48043 16.491 0.734784 16.491 1V12.509C16.491 12.7742 16.5964 13.0286 16.7839 13.2161C16.9714 13.4036 17.2258 13.509 17.491 13.509H29C29.2652 13.509 29.5196 13.4036 29.7071 13.2161C29.8946 13.0286 30 12.7742 30 12.509V1C30 0.734784 29.8946 0.48043 29.7071 0.292893C29.5196 0.105357 29.2652 0 29 0ZM28 11.509H18.491V2H28V11.509ZM13.509 29V17.491C13.509 17.2258 13.4036 16.9714 13.2161 16.7839C13.0286 16.5964 12.7742 16.491 12.509 16.491H1C0.734784 16.491 0.48043 16.5964 0.292893 16.7839C0.105357 16.9714 0 17.2258 0 17.491V29C0 29.2652 0.105357 29.5196 0.292893 29.7071C0.48043 29.8946 0.734784 30 1 30H12.509C12.7742 30 13.0286 29.8946 13.2161 29.7071C13.4036 29.5196 13.509 29.2652 13.509 29ZM11.509 28H2V18.491H11.509V28ZM29 16.491H17.491C17.2258 16.491 16.9714 16.5964 16.7839 16.7839C16.5964 16.9714 16.491 17.2258 16.491 17.491V29C16.491 29.2652 16.5964 29.5196 16.7839 29.7071C16.9714 29.8946 17.2258 30 17.491 30H29C29.2652 30 29.5196 29.8946 29.7071 29.7071C29.8946 29.5196 30 29.2652 30 29V17.491C30 17.2258 29.8946 16.9714 29.7071 16.7839C29.5196 16.5964 29.2652 16.491 29 16.491ZM28 28H18.491V18.491H28V28Z" fill="white"/>
</svg>
