<svg width="81" height="81" viewBox="0 0 81 81" fill="none" xmlns="http://www.w3.org/2000/svg">
<path d="M41 28C41.5304 28 42.0392 27.7893 42.4142 27.4142C42.7893 27.0391 43 26.5304 43 26C43 25.4696 42.7893 24.9609 42.4142 24.5858C42.0392 24.2107 41.5304 24 41 24C37.8355 24 34.7421 24.9384 32.1109 26.6965C29.4797 28.4546 27.4289 30.9534 26.2179 33.8771C25.0069 36.8007 24.6901 40.0177 25.3074 43.1214C25.9248 46.2251 27.4487 49.0761 29.6863 51.3137C31.9239 53.5513 34.7749 55.0752 37.8786 55.6926C40.9823 56.3099 44.1993 55.9931 47.1229 54.7821C50.0466 53.5711 52.5454 51.5203 54.3035 48.8891C56.0616 46.2579 57 43.1645 57 40C57 39.4696 56.7893 38.9609 56.4142 38.5858C56.0392 38.2107 55.5304 38 55 38C54.4696 38 53.9609 38.2107 53.5858 38.5858C53.2107 38.9609 53 39.4696 53 40C53 42.3734 52.2962 44.6935 50.9776 46.6668C49.6591 48.6402 47.7849 50.1783 45.5922 51.0866C43.3995 51.9948 40.9867 52.2324 38.6589 51.7694C36.3312 51.3064 34.193 50.1635 32.5147 48.4853C30.8365 46.8071 29.6936 44.6689 29.2306 42.3411C28.7676 40.0133 29.0052 37.6005 29.9135 35.4078C30.8217 33.2151 32.3598 31.3409 34.3332 30.0224C36.3066 28.7038 38.6266 28 41 28Z" fill="black"/>
<path d="M79.16 28.1211C78.9962 27.6211 78.642 27.2057 78.1742 26.9648C77.7063 26.7239 77.1625 26.677 76.6603 26.8341C76.1581 26.9913 75.738 27.3398 75.4909 27.8044C75.2438 28.269 75.1896 28.8122 75.34 29.3164C77.7608 37.0311 77.5243 45.3347 74.6683 52.899C71.8123 60.4634 66.5018 66.8513 59.5865 71.041C52.6711 75.2307 44.5503 76.98 36.5233 76.0092C28.4963 75.0383 21.0267 71.4034 15.3096 65.6858C9.59249 59.9683 5.95812 52.4985 4.98788 44.4714C4.01764 36.4442 5.76759 28.3236 9.9578 21.4086C14.148 14.4935 20.5364 9.18357 28.1009 6.32815C35.6655 3.47273 43.9691 3.23684 51.6836 5.65821C51.9358 5.74275 52.2023 5.77613 52.4676 5.75641C52.7329 5.73668 52.9915 5.66423 53.2285 5.54331C53.4654 5.42239 53.6758 5.25543 53.8474 5.05219C54.019 4.84895 54.1483 4.61352 54.2278 4.35968C54.3074 4.10585 54.3354 3.8387 54.3104 3.57388C54.2854 3.30906 54.2078 3.05189 54.0822 2.81742C53.9566 2.58296 53.7855 2.3759 53.5788 2.20838C53.3722 2.04086 53.1343 1.91624 52.8789 1.84181C44.3114 -0.845298 35.0902 -0.581522 26.6902 2.59095C18.2903 5.76341 11.197 11.6613 6.54483 19.3412C1.89267 27.0211 -0.0495239 36.0393 1.0289 44.9533C2.10732 53.8674 6.14405 62.1622 12.4934 68.5112C18.8428 74.8601 27.1379 78.8962 36.052 79.9741C44.9662 81.0519 53.9842 79.1091 61.6638 74.4564C69.3434 69.8037 75.2408 62.71 78.4127 54.3098C81.5846 45.9097 81.8477 36.6885 79.16 28.1211Z" fill="black"/>
<path d="M44.8086 14.2773C44.8133 13.7286 44.6094 13.1986 44.2381 12.7947C43.8667 12.3907 43.3558 12.143 42.8086 12.1016C42.2109 12.0488 41.6133 12 41 12C35.4621 12 30.0486 13.6422 25.444 16.7189C20.8395 19.7955 17.2506 24.1685 15.1314 29.2849C13.0121 34.4012 12.4576 40.0311 13.538 45.4625C14.6184 50.894 17.2852 55.8831 21.201 59.799C25.1169 63.7149 30.106 66.3816 35.5375 67.462C40.969 68.5424 46.5988 67.9879 51.7151 65.8686C56.8315 63.7494 61.2045 60.1605 64.2812 55.556C67.3578 50.9514 69 45.5379 69 40C69 39.2766 68.9556 38.5539 68.8672 37.8359C68.8423 37.5578 68.7599 37.2879 68.6251 37.0433C68.4904 36.7987 68.3063 36.5848 68.0845 36.4151C67.8627 36.2455 67.6081 36.1238 67.3368 36.0578C67.0655 35.9917 66.7834 35.9828 66.5084 36.0316C66.2335 36.0804 65.9717 36.1858 65.7396 36.3411C65.5076 36.4964 65.3103 36.6982 65.1604 36.9338C65.0105 37.1694 64.9112 37.4336 64.8688 37.7096C64.8264 37.9856 64.8418 38.2674 64.9141 38.5371C64.957 39.0215 65 39.5039 65 40C65 44.7468 63.5924 49.3869 60.9553 53.3337C58.3181 57.2805 54.5698 60.3566 50.1844 62.1731C45.799 63.9896 40.9734 64.4649 36.3178 63.5388C31.6623 62.6128 27.3859 60.327 24.0295 56.9706C20.673 53.6141 18.3872 49.3377 17.4612 44.6822C16.5351 40.0266 17.0104 35.201 18.8269 30.8156C20.6434 26.4302 23.7195 22.6819 27.6663 20.0447C31.6131 17.4076 36.2533 16 41 16C41.4961 16 41.9766 16.0449 42.4609 16.0859L42.8359 16.1191C43.0869 16.13 43.3376 16.0908 43.5733 16.0038C43.809 15.9167 44.025 15.7836 44.2087 15.6121C44.3924 15.4406 44.54 15.2343 44.643 15.0051C44.746 14.7759 44.8023 14.5285 44.8086 14.2773Z" fill="black"/>
<path d="M53 18V25.1719L39.5859 38.5859C39.3963 38.7708 39.2453 38.9914 39.1417 39.235C39.038 39.4787 38.9838 39.7405 38.9821 40.0053C38.9804 40.27 39.0314 40.5325 39.1319 40.7775C39.2325 41.0224 39.3806 41.2449 39.5679 41.4322C39.7551 41.6194 39.9776 41.7676 40.2226 41.8681C40.4675 41.9687 40.73 42.0196 40.9948 42.0179C41.2595 42.0162 41.5213 41.962 41.765 41.8583C42.0086 41.7547 42.2293 41.6037 42.4141 41.4141L55.8281 28H63C63.2627 28.0001 63.5227 27.9483 63.7654 27.8478C64.008 27.7473 64.2285 27.5999 64.4141 27.4141L76.4141 15.4141C76.6938 15.1344 76.8842 14.7781 76.9614 14.3901C77.0385 14.0022 76.9989 13.6001 76.8476 13.2347C76.6962 12.8693 76.4399 12.5569 76.111 12.3372C75.7822 12.1174 75.3955 12.0001 75 12H69V6.00002C69 5.60449 68.8826 5.21785 68.6629 4.889C68.4431 4.56014 68.1308 4.30383 67.7653 4.15247C67.3999 4.00112 66.9978 3.96151 66.6099 4.03866C66.222 4.11581 65.8656 4.30626 65.5859 4.58592L53.5859 16.5859C53.4001 16.7716 53.2528 16.992 53.1522 17.2347C53.0517 17.4773 53 17.7374 53 18ZM57 18.8281L65 10.8281V14C64.9999 14.2627 65.0515 14.5229 65.1519 14.7656C65.2524 15.0083 65.3997 15.2288 65.5854 15.4146C65.7712 15.6003 65.9917 15.7476 66.2345 15.8481C66.4772 15.9486 66.7373 16.0002 67 16H70.1719L62.1719 24H57V18.8281Z" fill="black"/>
</svg>
