<svg width="80" height="96" viewBox="0 0 80 96" fill="none" xmlns="http://www.w3.org/2000/svg">
<path d="M71.7 70.2C69.5 71 65.9 72 62 72.8C60.6 75.1 58 77 54 77.8C53.1 78 52 78.1 50.9 78.1C48.1 78.2 44.8 77.9 41.2 77.6C41 77.6 40.7 77.6 40.5 77.5C39.6 77.4 38.8 76.7 38.8 75.9C38.7 74.8 39.6 73.9 40.7 74C41 74 41.3 74 41.6 74.1C46.3 74.5 50.7 74.9 53.5 74.4C58.7 73.4 60.1 70.3 59.8 67.6C59.5 65.4 57.9 63.4 55.4 63.5C51.7 63.8 47.5 63.5 43.3 63.2C38.5 62.9 33.6 62.7 30.2 63.1C26.3 63.5 18.5 66.4 11.5 71.1C8.10001 73.4 4.30001 76.1 2.00001 77.8C0.800007 78.7 0.600007 80.3 1.50001 81.4L11.6 94.5C12.5 95.6 14.1 95.8 15.2 95L18.9 92.1C19.8 91.4 20.9 91.2 22 91.5C28.8 93.7 36 95.1 40.7 95.3C51 95.8 70.9 83.6 76.6 79.7C82.1 75.8 78 67.9 71.7 70.2Z" fill="black"/>
<path d="M20 10.2C20.3 10.4 20.4 10.8 20.3 11.2L19.4 15.2C19.2 16.1 20.1 16.7 20.9 16.3L24.4 14.2C24.7 14 25.1 14 25.4 14.2L28.9 16.3C29.7 16.8 30.6 16.1 30.4 15.2L29.5 11.2C29.4 10.8 29.5 10.5 29.8 10.2L32.9 7.5C33.6 6.9 33.2 5.8 32.3 5.8L28.2 5.5C27.8 5.5 27.5 5.2 27.4 4.9L25.8 1.1C25.5 0.3 24.3 0.3 24 1.1L22.4 4.9C22.3 5.2 21.9 5.5 21.6 5.5L17.5 5.8C16.6 5.9 16.3 7 16.9 7.5L20 10.2Z" fill="black"/>
<path d="M40.6 13.3H71.1C73 13.3 74.5 11.8 74.5 9.9C74.5 8 73 6.5 71.1 6.5H40.6C38.7 6.5 37.2 8 37.2 9.9C37.2 11.8 38.7 13.3 40.6 13.3Z" fill="black"/>
<path d="M20 29.4C20.3 29.6 20.4 30 20.3 30.4L19.4 34.4C19.2 35.3 20.1 35.9 20.9 35.5L24.4 33.4C24.7 33.2 25.1 33.2 25.4 33.4L28.9 35.5C29.7 36 30.6 35.3 30.4 34.4L29.5 30.4C29.4 30 29.5 29.7 29.8 29.4L32.9 26.7C33.6 26.1 33.2 25 32.3 25L28.2 24.7C27.8 24.7 27.5 24.4 27.4 24.1L25.8 20.3C25.5 19.5 24.3 19.5 24 20.3L22.4 24.1C22.3 24.4 21.9 24.7 21.6 24.7L17.5 25C16.6 25.1 16.3 26.2 16.9 26.7L20 29.4Z" fill="black"/>
<path d="M40.6 32.5H71.1C73 32.5 74.5 31 74.5 29.1C74.5 27.2 73 25.7 71.1 25.7H40.6C38.7 25.7 37.2 27.2 37.2 29.1C37.2 31 38.7 32.5 40.6 32.5Z" fill="black"/>
<path d="M20 48.6C20.3 48.8 20.4 49.2 20.3 49.6L19.4 53.6C19.2 54.5 20.1 55.1 20.9 54.7L24.4 52.6C24.7 52.4 25.1 52.4 25.4 52.6L28.9 54.7C29.7 55.2 30.6 54.5 30.4 53.6L29.5 49.6C29.4 49.2 29.5 48.9 29.8 48.6L32.9 45.9C33.6 45.3 33.2 44.2 32.3 44.2L28.2 43.9C27.8 43.9 27.5 43.6 27.4 43.3L25.8 39.5C25.5 38.7 24.3 38.7 24 39.5L22.4 43.3C22.3 43.6 21.9 43.9 21.6 43.9L17.5 44.2C16.6 44.3 16.3 45.4 16.9 45.9L20 48.6Z" fill="black"/>
<path d="M40.6 51.7H71.1C73 51.7 74.5 50.2 74.5 48.3C74.5 46.4 72.9 45 71.1 45H40.6C38.7 45 37.2 46.5 37.2 48.4C37.2 50.3 38.7 51.7 40.6 51.7Z" fill="black"/>
</svg>
