<svg width="24" height="24" viewBox="0 0 24 24" fill="none" xmlns="http://www.w3.org/2000/svg">
<g clip-path="url(#clip0_22_26)">
<path d="M8.566 17.842C7.621 20.304 4.888 21.854 2.003 22.003C2.142 19.231 3.687 16.395 6.212 15.44L6.722 15.961C5.188 17.484 4.661 18.726 4.578 19.422C5.282 19.337 6.584 18.814 8.061 17.326L8.566 17.842ZM7.43 6.5C5.652 6.49 3.368 7.411 1.664 9.114C1.014 9.763 0.442 10.522 0 11.372C1.538 10.209 3.228 9.887 5.147 10.964C5.713 9.47 6.467 7.95 7.43 6.5ZM12.634 24C13.486 23.56 14.244 22.987 14.895 22.336C16.603 20.63 17.517 18.335 17.499 16.554C15.924 17.584 14.374 18.326 13.033 18.85C14.11 20.77 13.797 22.464 12.634 24ZM23.946 0.044C23.518 0.014 23.098 0 22.685 0C13.347 0 8.22 7.426 6.584 13.009L11.012 17.437C16.792 15.582 24 10.66 24 1.444V1.385C23.998 0.948 23.981 0.501 23.946 0.044ZM18 8C16.895 8 16 7.105 16 6C16 4.895 16.895 4 18 4C19.105 4 20 4.895 20 6C20 7.105 19.105 8 18 8Z" fill="#A5C9B3"/>
</g>
<defs>
<clipPath id="clip0_22_26">
<rect width="24" height="24" fill="white"/>
</clipPath>
</defs>
</svg>
