<svg width="68" height="68" viewBox="0 0 68 68" fill="none" xmlns="http://www.w3.org/2000/svg">
<path d="M32.1883 12.835L31.2042 14.5616C29.7531 13.7369 28.1538 13.2062 26.4976 12.9998C24.8415 12.7933 23.1608 12.9151 21.5517 13.3582C19.9426 13.8013 18.4366 14.5571 17.1196 15.5824C15.8026 16.6076 14.7005 17.8823 13.8762 19.3335L12.1496 18.3507C14.0763 14.9629 17.2695 12.4788 21.0271 11.4445C24.7848 10.4102 28.7993 10.9104 32.1883 12.835Z" fill="#90C6E9"/>
<path d="M42.8132 7.75627C33.7687 -1.93907 18.5206 -2.47032 8.824 6.5729C4.2319 10.8669 1.50382 16.7884 1.22404 23.0691C0.944266 29.3498 3.13504 35.4904 7.32715 40.1757C11.5193 44.861 17.3794 47.7184 23.6524 48.136C29.9254 48.5535 36.1126 46.4981 40.8887 42.4098C41.1402 42.1946 41.3876 41.9733 41.6311 41.7457C41.8755 41.5186 42.1132 41.2862 42.3457 41.0511C46.704 36.6337 49.1862 30.7026 49.2734 24.4977C49.3605 18.2927 47.0458 12.2943 42.8132 7.75627ZM44.7695 24.8493C44.5937 29.9113 42.4603 34.7075 38.8186 38.2278C35.1769 41.7481 30.3112 43.7178 25.2462 43.722C25.0151 43.722 24.7826 43.718 24.5489 43.71C21.9817 43.6275 19.4564 43.0368 17.119 41.9719C14.7817 40.9071 12.6787 39.3892 10.9317 37.5063C3.57794 29.6172 4.00957 17.2258 11.8933 9.87197C14.7209 7.234 18.2674 5.49385 22.0841 4.87158C25.9008 4.24931 29.8163 4.77288 33.3355 6.37608C36.8546 7.97928 39.8193 10.5901 41.8545 13.8783C43.8898 17.1665 44.9042 20.9845 44.7695 24.8493Z" fill="#90C6E9"/>
<path d="M32.1883 12.835L31.2042 14.5616C29.7531 13.7369 28.1538 13.2062 26.4976 12.9998C24.8415 12.7933 23.1608 12.9151 21.5517 13.3582C19.9426 13.8013 18.4366 14.5571 17.1196 15.5824C15.8026 16.6076 14.7005 17.8823 13.8762 19.3335L12.1496 18.3507C14.0763 14.9629 17.2695 12.4788 21.0271 11.4445C24.7848 10.4102 28.7993 10.9104 32.1883 12.835Z" fill="white"/>
<path d="M65.725 60.456L49.3718 43.5516L42.864 49.6251L59.2198 66.5388C59.6175 66.9655 60.0956 67.3094 60.6267 67.5505C61.1578 67.7917 61.7314 67.9254 62.3143 67.944H62.4724C63.3394 67.943 64.1872 67.6889 64.9118 67.213C65.6365 66.737 66.2065 66.0599 66.5518 65.2647C66.8972 64.4695 67.0029 63.5908 66.856 62.7363C66.7091 61.8819 66.3161 61.0889 65.725 60.4547V60.456Z" fill="#90C6E9"/>
<path d="M41.6798 40.3351L40.223 41.694L46.0836 47.9766L47.5404 46.6177L41.6798 40.3351Z" fill="#90C6E9"/>
<path d="M32.1883 12.835L31.2042 14.5616C29.7531 13.7369 28.1538 13.2062 26.4976 12.9998C24.8415 12.7933 23.1608 12.9151 21.5517 13.3582C19.9426 13.8013 18.4366 14.5571 17.1196 15.5824C15.8026 16.6076 14.7005 17.8823 13.8762 19.3335L12.1496 18.3507C14.0763 14.9629 17.2695 12.4788 21.0271 11.4445C24.7848 10.4102 28.7993 10.9104 32.1883 12.835Z" fill="#90C6E9"/>
</svg>
