<svg width="139" height="80" viewBox="0 0 139 80" fill="none" xmlns="http://www.w3.org/2000/svg">
<path d="M69.5 0C44.0891 0 24.294 15.1411 0 39.7144C20.9121 60.7196 38.4732 79.4288 69.5 79.4288C100.496 79.4288 123.3 55.7243 139 40.1488C122.928 21.905 100.154 0 69.5 0ZM69.5 68.0419C54.1728 68.0419 41.7 55.3209 41.7 39.7144C41.7 24.0769 54.1728 11.3869 69.5 11.3869C84.8272 11.3869 97.3 24.1079 97.3 39.7144C97.3 55.3519 84.8272 68.0419 69.5 68.0419Z" fill="#E8A0BF"/>
<path d="M69.5 29.7855C69.5 27.3344 70.3998 25.1004 71.8581 23.3629C71.0824 23.2388 70.3067 23.1768 69.5 23.1768C60.5644 23.1768 53.2731 30.5922 53.2731 39.7141C53.2731 48.836 60.5644 56.2514 69.5 56.2514C78.4357 56.2514 85.727 48.836 85.727 39.7141C85.727 39.0005 85.665 38.2868 85.6029 37.5732C83.8964 38.9074 81.7866 39.7141 79.4596 39.7141C73.9369 39.7141 69.5 35.2772 69.5 29.7855Z" fill="#E8A0BF"/>
</svg>
