<svg width="150" height="150" viewBox="0 0 150 150" fill="none" xmlns="http://www.w3.org/2000/svg">
<path d="M75.1 39.7C100 40.9 122.2 49.4 139.5 67.9C147.6 76.5 147.5 75.3 139.6 84.6C129.5 96.6 115.8 103.6 101 108.1C67.2 118.2 37.3 110.4 12.3 86C1.90003 75.8 2.30003 76.9 12.3 66.5C29.3 48.7 50.7 40.8 75.1 39.7ZM53 51.1C39.3 55.5 27.5 61.7 18 71.5C12.7 77 12.5 75.8 18 80.9C40.4 101.6 66.5 109.5 96.4 101.3C110.9 97.3 123.9 90.2 134.1 78.8C135.8 76.9 135.8 75.7 134.1 73.8C127.7 66.7 120.1 61.4 111.7 57.1C107.1 54.8 102.3 52.7 96.9 51.3C109.9 66.7 106 84.5 95.9 94.2C84.4 105.2 66.7 105.5 54.8 95C44 85.3 39.8 66.9 53 51.1ZM74.9 94.6C87 94.6 96.9 84.5 96.9 72.3C96.8 59.9 87 50 74.9 50C62.8 50 52.9 60 52.9 72.3C52.9 84.5 62.9 94.6 74.9 94.6Z" fill="black"/>
<path d="M133.9 130C133.9 131.5 133.1 132.5 131.7 133C129.9 133.6 128.7 132.7 127.6 131.4C124 127.1 120.4 122.9 116.8 118.6C115.6 117.2 114.4 115.9 113.3 114.5C112 112.8 111.8 110.9 113.5 109.4C115.3 107.9 117.1 108.5 118.5 110.1C123.3 115.7 128 121.3 132.8 127C133.4 127.8 134 128.7 133.9 130Z" fill="black"/>
<path d="M16 129.7C15.9 128.5 16.5 127.7 17.2 126.8C21.9 121.3 26.6 115.7 31.4 110.2C32.8 108.6 34.5 107.9 36.4 109.4C38.2 110.9 38.2 112.7 36.8 114.4C31.9 120.3 26.9 126.1 21.9 132C20.9 133.2 19.4 133.5 17.9 132.7C16.3 132.1 15.8 131 16 129.7Z" fill="black"/>
<path d="M15.9 22.5C15.8 21 16.5 20 17.8 19.4C19.5 18.7 20.9 19.2 22 20.6C25 24.1 28 27.6 31 31.2C32.8 33.3 34.5 35.4 36.3 37.5C37.8 39.2 38.2 41.1 36.3 42.8C34.3 44.5 32.6 43.6 31.1 41.9C26.4 36.4 21.7 30.8 17 25.3C16.4 24.4 15.8 23.6 15.9 22.5Z" fill="black"/>
<path d="M133.9 22.4C134 23.4 133.5 24.3 132.7 25.1C128 30.6 123.4 36 118.8 41.5C117.2 43.4 115.3 44.3 113.4 42.6C111.4 40.9 112.1 38.9 113.7 37.1C118.4 31.7 123 26.2 127.6 20.7C128.8 19.3 130.2 18.8 131.8 19.4C133.2 19.8 133.9 20.8 133.9 22.4Z" fill="black"/>
<path d="M78.2 19.1C78.2 22.8 78.2 26.5 78.2 30.2C78.2 32.5 77.3 34.1 75.1 34.1C72.7 34.2 71.7 32.5 71.7 30.1C71.7 22.6 71.7 15.1 71.7 7.7C71.7 5.5 72.6 4 75 4C77.4 4 78.3 5.5 78.3 7.7C78.1 11.5 78.1 15.3 78.2 19.1Z" fill="black"/>
<path d="M71.6 132.9C71.6 129.2 71.6 125.5 71.6 121.8C71.6 119.6 72.5 118 74.9 118C77.2 118 78.2 119.5 78.2 121.8C78.2 129.4 78.2 137 78.2 144.6C78.2 146.7 77.1 148.2 75.1 148.3C72.9 148.4 71.7 147 71.7 144.7C71.6 140.7 71.6 136.8 71.6 132.9Z" fill="black"/>
<path d="M71.9 56.9C78.1 54.9 85.5 58.5 88.8 64.7C92.4 71.5 90.7 80 84.8 84.8C78.9 89.6 70.4 89.5 64.7 84.6C59 79.7 57.4 71.4 61.2 64.9C62.7 68.9 65 71.9 69.6 71.6C72.7 71.4 75.1 69.7 76 66.7C77.2 62.5 76 59.1 71.9 56.9Z" fill="black"/>
</svg>
