<svg width="30" height="12" viewBox="0 0 30 12" fill="none" xmlns="http://www.w3.org/2000/svg">
<g clip-path="url(#clip0_2315_16)">
<path d="M29.995 8.69732C29.995 10.3355 28.6668 11.6637 27.0286 11.6637H15.2892C13.651 11.6637 12.3228 10.3355 12.3228 8.69732V2.96643C12.3228 1.32822 13.651 0 15.2892 0H27.0283C28.6665 0 29.9948 1.32822 29.9948 2.96643L29.995 8.69732Z" fill="#EC2027"/>
<path d="M23.8389 0.624702C23.8389 0.624702 29.2343 -0.117647 29.3831 2.25797V4.18887L23.8389 0.624702Z" fill="url(#paint0_linear_2315_16)"/>
<path d="M15.2705 9.30282V3.11014H14.0457V1.88525H17.5567V3.11014H16.3323V9.30282H15.2705ZM20.8766 3.73235V9.30282H19.9036V8.74933C19.6984 9.21728 19.3986 9.45114 19.0028 9.45114C18.3655 9.45114 18.0466 9.00321 18.0466 8.10784V3.73235H19.0048V7.37216C19.0048 7.67078 19.0218 7.88412 19.0562 8.01266C19.1178 8.23416 19.2409 8.34515 19.425 8.34515C19.6243 8.34515 19.757 8.22501 19.8235 7.98399C19.8599 7.84556 19.8786 7.61492 19.8786 7.29059V3.73235H20.8766ZM21.7324 9.30282V1.88525H22.7249V4.20377C22.8911 3.79044 23.1719 3.58403 23.5667 3.58403C24.0709 3.58403 24.4012 3.94346 24.5567 4.66208C24.6363 5.02473 24.6756 5.65188 24.6756 6.54403C24.6756 7.41023 24.6323 8.02947 24.5461 8.40176C24.3832 9.1011 24.0497 9.45089 23.5461 9.45089C23.1261 9.45089 22.8362 9.20739 22.6757 8.71991V9.30232L21.7324 9.30282ZM23.2141 4.66604C22.943 4.66604 22.7763 4.9518 22.7143 5.52309C22.7017 5.63878 22.6958 6.0479 22.6958 6.75119C22.6958 7.29355 22.7069 7.63197 22.7294 7.76695C22.7939 8.18076 22.9556 8.38817 23.2146 8.38817C23.4562 8.38817 23.6025 8.13454 23.6547 7.62728C23.6673 7.52123 23.6734 7.15734 23.6734 6.53439C23.6734 5.88944 23.6683 5.52136 23.6584 5.43187C23.606 4.92115 23.4581 4.66604 23.2141 4.66604ZM27.3093 7.39144H28.2422C28.2422 7.41715 28.2435 7.45325 28.246 7.49972C28.2489 7.54619 28.2499 7.58253 28.2499 7.60799C28.2499 8.24998 28.1315 8.71719 27.8944 9.01112C27.6574 9.3043 27.2898 9.45114 26.7907 9.45114C26.2745 9.45114 25.9027 9.2729 25.6758 8.91693C25.4953 8.63413 25.3806 8.22205 25.3307 7.68018C25.3084 7.44262 25.2973 6.99493 25.2973 6.33688C25.2973 5.80737 25.3084 5.43063 25.3307 5.20617C25.3754 4.75033 25.4726 4.404 25.6236 4.16669C25.8708 3.77858 26.2678 3.58428 26.8164 3.58428C27.3449 3.58428 27.7308 3.7944 27.9753 4.21415C28.173 4.55405 28.2714 5.23979 28.2714 6.27236V6.69532H26.3232C26.316 6.75663 26.3121 6.87553 26.3121 7.05179C26.3121 7.46635 26.3291 7.762 26.364 7.9385C26.4357 8.30164 26.584 8.48309 26.8085 8.48309C27.1424 8.48309 27.3093 8.11921 27.3093 7.39144ZM26.3151 5.81133H27.2759V5.57599C27.2759 5.25561 27.2537 5.02819 27.2089 4.89371C27.14 4.67914 27.0003 4.57185 26.7907 4.57185C26.6154 4.57185 26.4903 4.64552 26.4164 4.79285C26.3277 4.97553 26.2903 5.23658 26.3054 5.57599L26.3106 5.65287C26.3136 5.70725 26.3151 5.76015 26.3151 5.81133Z" fill="white"/>
<path d="M1.50985 9.34483V6.18212L0.00512695 1.88525H1.18972L2.05765 4.69149L2.9142 1.88525H4.06518L2.5874 6.18188V9.34483H1.50985ZM4.434 6.5465C4.434 5.58167 4.50717 4.89766 4.65376 4.49373C4.87204 3.89377 5.30391 3.59342 5.94935 3.59342C6.5943 3.59342 7.02789 3.89353 7.24865 4.49373C7.39524 4.89395 7.46841 5.57821 7.46841 6.5465C7.46841 7.5143 7.39524 8.19855 7.24865 8.59853C7.02789 9.19552 6.59455 9.49414 5.94935 9.49414C5.30391 9.49414 4.87204 9.19404 4.65376 8.59383C4.50717 8.19386 4.434 7.51108 4.434 6.5465ZM5.45717 6.61893C5.45717 7.31258 5.46088 7.68956 5.4683 7.75087C5.51996 8.25071 5.67792 8.50063 5.94194 8.50063C6.20619 8.50063 6.36762 8.28631 6.4267 7.85741C6.43906 7.76372 6.44524 7.41393 6.44524 6.80755V6.26098C6.44524 5.69316 6.43782 5.35128 6.42324 5.23534C6.36119 4.80966 6.20323 4.59682 5.94935 4.59682C5.7024 4.59682 5.54814 4.78419 5.48634 5.15821C5.46681 5.27736 5.45692 5.5918 5.45692 6.10129L5.45717 6.61893ZM11.0457 3.74298V9.34483H10.0672V8.78813C9.86083 9.2588 9.55875 9.49389 9.1615 9.49389C8.52025 9.49389 8.19963 9.04374 8.19963 8.14343V3.74298H9.16323V7.4033C9.16323 7.7039 9.18053 7.91823 9.21489 8.04702C9.27669 8.26999 9.40054 8.38173 9.5857 8.38173C9.78593 8.38173 9.91967 8.2606 9.98641 8.01859C10.023 7.87941 10.042 7.64729 10.042 7.32148V3.74298H11.0457Z" fill="white"/>
</g>
<defs>
<linearGradient id="paint0_linear_2315_16" x1="27.6831" y1="0.550294" x2="26.5326" y2="2.54274" gradientUnits="userSpaceOnUse">
<stop stop-color="white"/>
<stop offset="0.093" stop-color="#FEF5F5"/>
<stop offset="0.252" stop-color="#FCDADB"/>
<stop offset="0.457" stop-color="#F9AEB1"/>
<stop offset="0.7" stop-color="#F47176"/>
<stop offset="0.973" stop-color="#EE242C"/>
<stop offset="1" stop-color="#ED1C24"/>
</linearGradient>
<clipPath id="clip0_2315_16">
<rect width="30" height="11.664" fill="white"/>
</clipPath>
</defs>
</svg>
